<svg xmlns="http://www.w3.org/2000/svg" viewBox="0 0 256 549">
  <path fill="#01EC64" d="M175.622 61.108C152.612 33.807 132.797 6.078 128.749.32a1.03 1.03 0 0 0-1.492 0c-4.048 5.759-23.863 33.487-46.874 60.788-197.507 251.896 31.108 421.89 31.108 421.89l1.917 1.28c1.704 26.234 3.428 52.202 3.428 52.202h17.045s1.724-25.968 3.428-52.202l1.917-1.28S372.13 313.004 175.622 61.108zM128.005 504.11c-2.56-3.413-5.12-6.827-5.12-6.827s-30.293-40.743-27.733-103.31l.684-11.648h64.341l.684 11.648c2.56 62.567-27.733 103.31-27.733 103.31s-2.56 3.413-5.12 6.826z"/>
</svg>