<svg xmlns="http://www.w3.org/2000/svg" viewBox="0 0 32 32">
  <path fill="#000000" d="M32 24.795c-1.164.296-1.884.013-2.53-.957l-4.594-6.356-.664-.88-5.365 7.257c-.613.873-1.256 1.253-2.4.944l6.87-9.222-6.396-8.33c1.1-.214 1.86-.105 2.535.88l4.765 6.435 4.8-6.4c.615-.873 1.276-1.205 2.38-.883l-2.48 3.288-3.36 4.375c-.4.5-.345.842.023 1.325L32 24.795zM.008 15.427l.562-2.764C2.1 7.193 8.37 4.92 12.694 8.3c2.527 1.988 3.155 4.8 3.03 7.95H1.48c-.214 5.67 3.92 9.257 9.07 7.9 1.825-.47 2.9-1.6 3.438-3.03.384-.988 1.22-1.085 1.924-.607.36.3.464.7.29 1.1-.96 2.1-2.9 3.8-5.66 4.6-3.5 1-8.12-.4-10.57-4.4C.28 18.774-.32 17.026.008 15.427zm1.48-5.156h13.52c-.084-4.1-2.532-6.764-6.79-6.764-4.32 0-6.85 2.7-6.73 6.764z"/>
</svg>